# xmcd CD database file
#
# Track frame offsets:
#	150
#	5855
#	55417
#	128417
#	171507
#	195407
#	206602
#
# Disc length: 2884 seconds
#
# Revision: 2
# Processed by: cddbd v1.5.2PL0 Copyright (c) Steve Scherf et al.
# Submitted via: CDex 1.51
#
DISCID=5f0b4207
DTITLE=Toshihiko Sahashi - The Big-O Walking Together On The Yellow Brick Road
DYEAR=2000
DGENRE=Anime
TTITLE0=Brick Hall
TTITLE1=Stand on Memory
TTITLE2=A Spirit of the PAST
TTITLE3=Memory
TTITLE4=Forever and Ever
TTITLE5=Brick Ballades
TTITLE6=The Holy Remix
EXTD=YEAR: 2000
EXTT0=
EXTT1=
EXTT2=
EXTT3=
EXTT4=
EXTT5=
EXTT6=
PLAYORDER=
